# xmcd
#
# Track frame offsets:
#	150
#	13523
#	25428
#	39358
#	52868
#	66388
#	79750
#	90093
#	100610
#	111748
#	122918
#	139793
#	151733
#	162718
#	171183
#	181145
#
# Disc length: 2558 seconds
#
# Revision: 1
# Processed by: cddbd v1.5.2PL0 Copyright (c) Steve Scherf et al.
# Submitted via: EasyCDDAExtractor 12.0.7.1
#
DISCID=c909fc10
DTITLE=Freddy Quinn - Take Me Home, Country Roads
DYEAR=1992
DGENRE=Country
TTITLE0=It's Country Time
TTITLE1=Tennessee Teardrops
TTITLE2=Take Me Home, Country Roads
TTITLE3=Green Green Grass Of Home
TTITLE4=Oh, Lonesome Me
TTITLE5=Home On The Range
TTITLE6=Carry Me Back To Old Virginny
TTITLE7=Yellow Rose Of Texas
TTITLE8=Older Men Make Better Lovers
TTITLE9=Jambalaya
TTITLE10=Help Me Make It Through The Night
TTITLE11=Old Smoky
TTITLE12=Some Broken Hearts Never Mend
TTITLE13=Oh, Susanna
TTITLE14=Oh, My Darling Clementine
TTITLE15=Tom Dooley
EXTD=ID3G: 2
EXTT0=
EXTT1=
EXTT2=
EXTT3=
EXTT4=
EXTT5=
EXTT6=
EXTT7=
EXTT8=
EXTT9=
EXTT10=
EXTT11=
EXTT12=
EXTT13=
EXTT14=
EXTT15=
PLAYORDER=
